<?xml version="1.0" encoding="iso-8859-1"?>
<!-- Generator: Adobe Illustrator 19.0.0, SVG Export Plug-In . SVG Version: 6.00 Build 0)  -->
<svg version="1.1" id="Capa_1" xmlns="http://www.w3.org/2000/svg" xmlns:xlink="http://www.w3.org/1999/xlink" x="0px" y="0px"
	 viewBox="0 0 511.999 511.999" style="enable-background:new 0 0 511.999 511.999;" xml:space="preserve">
<g>
	<path style="fill:#0C4870;" d="M479.631,223.465c11.672-8.983,22.509-18.996,32.368-29.916
		c0,136.591-108.405,249.075-243.43,255.679L479.631,223.465z"/>
	<path style="fill:#0C4870;" d="M223.469,32.368C214.486,20.696,204.473,9.859,193.553,0c136.591,0,249.075,108.405,255.679,243.43
		L223.469,32.368z"/>
	<path style="fill:#0C4870;" d="M32.368,288.534C20.696,297.517,9.859,307.53,0,318.45C0,181.86,108.405,69.375,243.43,62.772
		L32.368,288.534z"/>
	<path style="fill:#0C4870;" d="M288.531,479.631c8.983,11.672,18.996,22.509,29.916,32.368
		c-136.591,0-249.075-108.405-255.679-243.43L288.531,479.631z"/>
</g>
<path style="fill:#0968A7;" d="M479.632,223.465c-9.591,7.386-19.759,14.062-30.4,19.965
	C443.112,130.533,346.225,44.493,223.469,32.368c7.386,9.591,14.062,19.759,19.965,30.4
	C130.533,68.891,44.493,165.779,32.368,288.534c9.591-7.386,19.759-14.062,30.4-19.965
	c6.119,112.897,103.007,198.937,225.762,211.062c-7.386-9.591-14.062-19.759-19.965-30.4
	C381.467,443.108,467.507,346.22,479.632,223.465z"/>
<path style="fill:#0E2739;" d="M259.934,386.787c51.937-0.917,100.206-22.667,135.172-58.449
	c-10.848,2.301-21.823,3.992-32.87,5.091c16.103-21.804,25.627-48.761,25.627-77.946c0-1.142-0.015-2.282-0.044-3.418
	c-0.917-51.937-22.667-100.206-58.449-135.172c2.301,10.848,3.992,21.823,5.091,32.87c-21.804-16.102-48.761-25.627-77.946-25.627
	c-1.142,0-2.282,0.015-3.418,0.044c-51.937,0.917-100.206,22.667-135.172,58.449c10.848-2.301,21.823-3.992,32.87-5.091
	c-16.102,21.804-25.627,48.761-25.627,77.946c0,1.142,0.015,2.282,0.044,3.418c0.917,51.937,22.667,100.206,58.449,135.172
	c-2.301-10.848-3.992-21.823-5.091-32.87c21.804,16.102,48.761,25.627,77.946,25.627C257.66,386.83,258.799,386.815,259.934,386.787
	z"/>
<circle style="fill:#CD8BFF;" cx="256.513" cy="255.483" r="69.537"/>
<path style="fill:#8DD2FF;" d="M256.517,209.125v92.716c25.6,0,46.358-20.758,46.358-46.358S282.116,209.125,256.517,209.125z"/>
<path style="fill:#DEF1FF;" d="M256.517,209.125c8.53,0,15.453,20.758,15.453,46.358s-6.923,46.358-15.453,46.358
	c-25.6,0-46.358-20.758-46.358-46.358S230.917,209.125,256.517,209.125z"/>
<g>
</g>
<g>
</g>
<g>
</g>
<g>
</g>
<g>
</g>
<g>
</g>
<g>
</g>
<g>
</g>
<g>
</g>
<g>
</g>
<g>
</g>
<g>
</g>
<g>
</g>
<g>
</g>
<g>
</g>
</svg>
